<?xml version="1.0" encoding="UTF-8" standalone="no"?>
<svg xmlns="http://www.w3.org/2000/svg" width="1024" height="1024" viewBox="0 0 1024 1024">
  <!-- Background -->
  <rect width="1024" height="1024" rx="200" fill="#4a6da7" />
  
  <!-- Open book shape -->
  <path d="M200,320 C200,280 240,260 280,260 L512,260 L744,260 C784,260 824,280 824,320 L824,740 C824,700 784,660 744,660 L532,660 C522,660 512,664 512,670 C512,664 502,660 492,660 L280,660 C240,660 200,700 200,740 Z" fill="#f0f0f0" />
  
  <!-- Book binding shadow -->
  <rect x="492" y="260" width="40" height="400" fill="#d0d0d0" />
  
  <!-- MV Text -->
  <text x="512" y="520" font-family="Arial" font-weight="bold" font-size="220" fill="#2c3e50" text-anchor="middle">MV</text>
  
  <!-- Bookmark ribbon -->
  <path d="M512,240 L512,200 L452,260 L512,320 L572,260 Z" fill="#e74c3c" />
</svg>